#!OML:ASF I:\Actors\actors\Patient Classification 1\Patient 1\Session 1\Subject1.ASF
:FULLY-SPECIFIED
:DEGREES
608
root -0.00499207 17.4804 8.63295 -7.07365 64.2518 -18.0273
lowerback -0.551657 9.20974 10.923
upperback -12.1284 13.3955 -2.07538
thorax -9.98886 5.67438 -8.95492
lowerneck -6.21291 11.2031 14.5246
upperneck 21.9431 13.6087 2.77703
head 8.77654 8.0713 0.0357594
rclavicle -3.83654e-014 -1.35174e-014
rhumerus -17.0412 25.7054 -103.349
rradius 132.432
rwrist 11.9135
rhand 22.0244 -34.2167
rfingers 7.12502
rthumb 46.4161 -57.136
lclavicle -3.83654e-014 -1.35174e-014
lhumerus -26.5423 -27.9744 105.345
lradius 128.532
lwrist 10.8414
lhand -2.00556 -18.4705
lfingers 7.12502
lthumb 23.6681 10.0924
rfemur 3.3956 -1.57746 34.6235
rtibia 6.57258
rfoot -45.9161 -50.5307
rtoes 40.957
lfemur -19.8483 -35.0574 -1.22119
ltibia 1.91518
lfoot -0.565283 -13.6671
ltoes -13.8768
609
root 0.000537246 17.4815 8.63446 -6.82825 64.1876 -17.8677
lowerback -0.507906 9.21485 10.9424
upperback -12.1094 13.4053 -2.08463
thorax -9.98421 5.67698 -8.98037
lowerneck -6.17663 11.1713 14.4109
upperneck 21.7466 13.5469 2.92068
head 8.67882 8.03714 0.0784662
rclavicle 1.51076e-014 3.02153e-014
rhumerus -16.964 25.4335 -103.236
rradius 132.543
rwrist 11.182
rhand 22.8485 -34.5332
rfingers 7.12502
rthumb 47.1789 -57.1202
lclavicle 1.51076e-014 3.02153e-014
lhumerus -26.5288 -28.0385 105.38
lradius 128.486
lwrist 10.9384
lhand -2.09109 -18.5203
lfingers 7.12502
lthumb 23.586 10.0532
rfemur 3.34374 -1.47783 34.5631
rtibia 6.51032
rfoot -45.895 -50.598
rtoes 40.7545
lfemur -19.929 -35.0056 -1.23133
ltibia 1.93098
lfoot -0.539944 -13.6518
ltoes -14.124
610
root 0.00697655 17.4827 8.63737 -6.57578 64.1224 -17.6663
lowerback -0.433101 9.20335 10.9048
upperback -12.0877 13.3956 -2.06908
thorax -10.0155 5.67264 -8.95774
lowerneck -6.16493 11.1251 14.412
upperneck 21.7215 13.4692 2.97929
head 8.65996 8.00488 0.0858598
rclavicle -3.57812e-014 3.97569e-015
rhumerus -16.9369 25.2756 -103.159
rradius 132.585
rwrist 10.7591
rhand 23.3671 -34.6562
rfingers 7.12502
rthumb 47.6579 -57.0271
lclavicle -3.57812e-014 3.97569e-015
lhumerus -26.5782 -28.1012 105.493
lradius 128.407
lwrist 10.7713
lhand -1.91824 -18.561
lfingers 7.12502
lthumb 23.7518 9.99113
rfemur 3.34998 -1.41183 34.4725
rtibia 6.4088
rfoot -45.8767 -50.6205
rtoes 40.6613
lfemur -19.9583 -34.9522 -1.29919
ltibia 1.95957
lfoot -0.561223 -13.6239
ltoes -14.4912
611
root 0.0127835 17.4847 8.64112 -6.39843 64.0471 -17.5199
lowerback -0.303974 9.1737 10.8863
upperback -12.0623 13.37 -2.04143
thorax -10.0776 5.6557 -8.94339
lowerneck -6.2262 11.0963 14.6634
upperneck 21.9921 13.4224 2.82207
head 8.79464 7.99987 0.011969
rclavicle -6.40087e-014 -2.14687e-014
rhumerus -16.9579 25.2821 -103.17
rradius 132.563
rwrist 10.7982
rhand 23.2788 -34.5776
rfingers 7.12502
rthumb 47.5764 -56.9856
lclavicle -6.40087e-014 -2.14687e-014
lhumerus -26.662 -28.2092 105.616
lradius 128.375
lwrist 10.4734
lhand -1.43442 -18.6138
lfingers 7.12502
lthumb 24.2158 9.87728
rfemur 3.39221 -1.38492 34.41
rtibia 6.2893
rfoot -45.7127 -50.6559
rtoes 40.4921
lfemur -19.9773 -34.8977 -1.33846
ltibia 2.02221
lfoot -0.626337 -13.5325
ltoes -14.5927
612
root 0.0176669 17.487 8.64558 -6.33611 63.9435 -17.5413
lowerback -0.127724 9.13242 10.9324
upperback -12.0696 13.3463 -1.99171
thorax -10.1999 5.62867 -8.95343
lowerneck -6.17086 11.1274 14.6923
upperneck 21.7918 13.5012 2.61838
head 8.73549 8.00749 -0.061138
rclavicle 2.20651e-014 -3.02153e-014
rhumerus -17.0424 25.327 -103.198
rradius 132.576
rwrist 10.9089
rhand 23.2082 -34.52
rfingers 7.12502
rthumb 47.5112 -56.9577
lclavicle 2.20651e-014 -3.02153e-014
lhumerus -26.755 -28.242 105.731
lradius 128.35
lwrist 10.248
lhand -0.999773 -18.8131
lfingers 7.12502
lthumb 24.6324 9.62173
rfemur 3.39862 -1.17934 34.4734
rtibia 6.17208
rfoot -45.8844 -50.6526
rtoes 40.5485
lfemur -20.0702 -34.7385 -1.24172
ltibia 2.10965
lfoot -0.643752 -13.4822
ltoes -14.3311
613
root 0.0250324 17.4891 8.6523 -6.24494 63.8765 -17.6003
lowerback 0.0230391 9.0896 10.9267
upperback -12.129 13.3209 -1.96418
thorax -10.3736 5.59985 -8.96345
lowerneck -6.35047 11.1421 14.7048
upperneck 22.0005 13.4679 2.72396
head 8.83273 8.01064 -0.0114581
rclavicle 1.78906e-015 -9.54166e-015
rhumerus -17.1541 25.2509 -103.241
rradius 132.633
rwrist 10.9054
rhand 23.277 -34.5673
rfingers 7.12502
rthumb 47.5747 -56.9761
lclavicle 1.78906e-015 -9.54166e-015
lhumerus -26.8778 -28.1882 105.792
lradius 128.34
lwrist 10.2667
lhand -0.789845 -18.8749
lfingers 7.12502
lthumb 24.8336 9.53236
rfemur 3.38969 -0.805391 34.5961
rtibia 5.97317
rfoot -46.3868 -50.7118
rtoes 40.7865
lfemur -20.2285 -34.5194 -1.11142
ltibia 2.16019
lfoot -0.665548 -13.5423
ltoes -14.4367
614
root 0.0354807 17.4925 8.65901 -6.01973 63.8598 -17.5684
lowerback 0.109346 9.05499 10.8343
upperback -12.2003 13.293 -1.95637
thorax -10.5348 5.57906 -8.9387
lowerneck -6.60452 11.1382 14.8128
upperneck 22.3062 13.3846 2.82351
head 8.98366 8.0017 0.0269319
rclavicle 1.3736e-013 3.49861e-014
rhumerus -17.2119 25.135 -103.241
rradius 132.676
rwrist 10.9131
rhand 23.3113 -34.6212
rfingers 7.12502
rthumb 47.6064 -57.0156
lclavicle 1.3736e-013 3.49861e-014
lhumerus -27.0285 -28.1468 105.884
lradius 128.358
lwrist 10.3872
lhand -0.690496 -18.8088
lfingers 7.12502
lthumb 24.9288 9.58536
rfemur 3.34647 -0.595581 34.6443
rtibia 5.74523
rfoot -46.5884 -50.8119
rtoes 40.7057
lfemur -20.4339 -34.4449 -1.00135
ltibia 2.16663
lfoot -0.664417 -13.4727
ltoes -14.5438
615
root 0.0468439 17.4969 8.66559 -5.73328 63.8304 -17.4711
lowerback 0.219229 9.01035 10.7182
upperback -12.2473 13.2516 -1.92264
thorax -10.6948 5.55533 -8.87592
lowerneck -6.79309 11.1628 14.7838
upperneck 22.3851 13.3781 2.84632
head 9.041 7.99833 0.0531937
rclavicle 4.39314e-014 -1.03368e-014
rhumerus -17.2074 25.132 -103.169
rradius 132.694
rwrist 10.9662
rhand 23.5568 -34.6009
rfingers 7.12502
rthumb 47.8329 -56.8913
lclavicle 4.39314e-014 -1.03368e-014
lhumerus -27.1719 -28.1001 106.054
lradius 128.354
lwrist 10.4755
lhand -0.680275 -18.9516
lfingers 7.12502
lthumb 24.9386 9.44117
rfemur 3.28467 -0.518168 34.629
rtibia 5.56727
rfoot -46.5833 -50.8286
rtoes 40.5063
lfemur -20.6198 -34.4703 -0.911415
ltibia 2.16169
lfoot -0.614448 -13.2753
ltoes -14.1559
616
root 0.0580177 17.5 8.67317 -5.42519 63.8005 -17.3507
lowerback 0.385552 8.92371 10.5791
upperback -12.2737 13.1584 -1.86254
thorax -10.8862 5.50623 -8.78252
lowerneck -6.96193 11.2275 14.5986
upperneck 22.3247 13.4346 2.9281
head 9.03195 8.01004 0.119758
rclavicle 1.55052e-014 -1.74931e-014
rhumerus -17.1823 25.2774 -103.085
rradius 132.722
rwrist 10.9084
rhand 23.7747 -34.5788
rfingers 7.12502
rthumb 48.0339 -56.7758
lclavicle 1.55052e-014 -1.74931e-014
lhumerus -27.2329 -27.9592 106.185
lradius 128.343
lwrist 10.5036
lhand -0.620673 -19.1259
lfingers 7.12502
lthumb 24.9957 9.25893
rfemur 3.24045 -0.228596 34.6413
rtibia 5.36726
rfoot -46.9514 -50.8673
rtoes 40.6498
lfemur -20.8246 -34.4105 -0.846937
ltibia 2.19939
lfoot -0.622674 -13.2205
ltoes -13.9793
617
root 0.0681753 17.5024 8.6783 -4.97823 63.7511 -17.1668
lowerback 0.562607 8.85815 10.4426
upperback -12.3147 13.0909 -1.8602
thorax -11.0811 5.46605 -8.75494
lowerneck -7.12179 11.3097 14.5073
upperneck 22.1928 13.5057 2.98904
head 9.00663 8.03001 0.165418
rclavicle -5.76476e-014 -2.78299e-014
rhumerus -17.1114 25.4305 -103.052
rradius 132.73
rwrist 10.9344
rhand 23.6452 -34.5144
rfingers 7.12502
rthumb 47.9145 -56.767
lclavicle -5.76476e-014 -2.78299e-014
lhumerus -27.2202 -27.8407 106.213
lradius 128.38
lwrist 10.5092
lhand -0.523836 -19.0983
lfingers 7.12502
lthumb 25.0885 9.27355
rfemur 3.09621 0.068255 34.6125
rtibia 5.16581
rfoot -47.2243 -50.9314
rtoes 40.8105
lfemur -21.1914 -34.3881 -0.719101
ltibia 2.31204
lfoot -0.650059 -13.0787
ltoes -13.7398
618
root 0.0777226 17.505 8.68389 -4.60792 63.6558 -17.079
lowerback 0.809687 8.84057 10.3693
upperback -12.3617 13.0959 -1.91034
thorax -11.2859 5.45046 -8.82998
lowerneck -7.28984 11.3789 14.483
upperneck 22.0352 13.5494 3.04358
head 8.9785 8.0408 0.196194
rclavicle -5.86415e-014 -5.1684e-014
rhumerus -17.0119 25.4618 -103.063
rradius 132.716
rwrist 11.0756
rhand 23.6639 -34.4443
rfingers 7.12502
rthumb 47.9317 -56.6889
lclavicle -5.86415e-014 -5.1684e-014
lhumerus -27.2241 -27.849 106.234
lradius 128.468
lwrist 10.5226
lhand -0.594025 -18.956
lfingers 7.12502
lthumb 25.0213 9.42524
rfemur 2.93491 0.215205 34.6055
rtibia 4.96637
rfoot -47.2418 -50.9052
rtoes 40.8559
lfemur -21.5748 -34.4059 -0.498097
ltibia 2.44003
lfoot -0.660737 -12.8128
ltoes -13.2879
